<?xml version="1.0" encoding="utf-8"?>
<!-- Generator: Adobe Illustrator 22.1.0, SVG Export Plug-In . SVG Version: 6.00 Build 0)  -->
<svg version="1.1" id="Layer_1" xmlns="http://www.w3.org/2000/svg" xmlns:xlink="http://www.w3.org/1999/xlink" x="0px" y="0px"
	 viewBox="0 0 23.3 23.3" style="enable-background:new 0 0 23.3 23.3;" xml:space="preserve">
<style type="text/css">
	.st0{fill:#FFFFFF;}
</style>
<path class="st0" d="M11.7,23.3C5.3,23.3,0,18.2,0,11.7C0,5.3,5.2,0,11.6,0c6.4,0,11.7,5.2,11.7,11.7C23.3,18.1,18.2,23.3,11.7,23.3
	z M11.5,21.9c5.6,0.1,10.3-4.4,10.4-9.9C22,6.1,17.5,1.6,12,1.5C6.3,1.3,1.7,5.7,1.5,11.2C1.2,17.2,5.9,21.8,11.5,21.9z"/>
<path class="st0" d="M13.9,11.7c-0.6-0.4-1.2-0.8-1.8-1.2c-1.4-0.9-2.8-1.9-4.3-2.8C7.5,7.4,7.4,7.1,7.5,6.8c0.1-0.4,0.6-0.6,1-0.5
	c0.1,0,0.2,0.1,0.2,0.1c2.3,1.5,4.6,3,6.8,4.6c0.4,0.3,0.5,0.8,0.2,1.1c-0.1,0.1-0.2,0.2-0.3,0.2c-2.3,1.5-4.6,3-6.9,4.6
	c-0.5,0.3-1,0.1-1.1-0.3c-0.1-0.3-0.1-0.6,0.2-0.8c0.1-0.1,0.1-0.1,0.2-0.1c1.9-1.3,3.9-2.6,5.8-3.9C13.7,11.7,13.8,11.7,13.9,11.7z
	"/>
</svg>
