<?xml version="1.0" encoding="utf-8"?>
<!-- Generator: Adobe Illustrator 22.1.0, SVG Export Plug-In . SVG Version: 6.00 Build 0)  -->
<svg version="1.1" id="Layer_1" xmlns="http://www.w3.org/2000/svg" xmlns:xlink="http://www.w3.org/1999/xlink" x="0px" y="0px"
	 viewBox="0 0 42.1 55.8" style="enable-background:new 0 0 42.1 55.8;" xml:space="preserve">
<style type="text/css">
	.st0{fill:#FFFFFF;}
</style>
<path class="st0" d="M14.2,29.8c-3.7-3.3-5.7-7.4-5.9-12.4c-0.2-4.3,1.2-8.1,3.9-11.4c5.2-6.3,14.4-8,21.6-3.8
	c7.1,4.2,10,12.9,7.4,20.3c-2.7,7.7-12.2,13.9-21.9,10.2c-0.8,1.4-1.6,2.8-2.5,4.2c0.6,0.4,0.5,0.8,0.3,1.4
	c-2.2,4.7-4.3,9.4-6.5,14.1c-1,2.1-2.6,3.2-4.9,3.3c-2.6,0.1-5-1.9-5.5-4.5c-0.3-1.6,0.1-3.1,1.1-4.4c3.1-4.2,6.2-8.4,9.3-12.5
	c0.4-0.5,0.5-0.6,1.2-0.3C12.5,32.6,13.4,31.2,14.2,29.8z M25.2,32.6c8.9,0,15.7-7.3,15.6-15.8C40.7,8.1,33.6,1.1,24.9,1.2
	C16.2,1.3,9.4,8.4,9.5,16.9C9.5,25.8,16.6,32.6,25.2,32.6z M11.3,35.4c-0.3,0.4-0.6,0.8-0.9,1.2C7.7,40.3,4.9,44,2.2,47.7
	C1,49.2,0.9,51,1.9,52.6c0.9,1.4,2.1,2.1,3.7,2c1.7-0.1,3-1,3.7-2.5c1.6-3.4,3.1-6.9,4.7-10.3c0.5-1.2,1.1-2.4,1.7-3.7
	C14.3,37.1,12.8,36.3,11.3,35.4z M18.1,32.4c-1-0.6-1.9-1.1-2.9-1.7c-0.8,1.4-1.6,2.7-2.4,4.1c1,0.6,1.9,1.1,2.8,1.7
	C16.4,35.1,17.2,33.7,18.1,32.4z"/>
<path class="st0" d="M37.5,17c-0.1,6.9-5.6,12.3-12.3,12.3c-7.4,0-12.3-6-12.2-12.4C13,10.2,18.3,4.7,25.2,4.7
	C32.1,4.7,37.6,10.3,37.5,17z M36.2,17c0-6.1-4.9-11.1-10.9-11.1c-6.1,0-11.1,4.9-11.1,11c0,6,5,11,11,11.1
	C31.2,28,36.2,23.1,36.2,17z"/>
</svg>
