<?xml version="1.0" encoding="utf-8"?>
<!-- Generator: Adobe Illustrator 22.1.0, SVG Export Plug-In . SVG Version: 6.00 Build 0)  -->
<svg version="1.1" id="Layer_1" xmlns="http://www.w3.org/2000/svg" xmlns:xlink="http://www.w3.org/1999/xlink" x="0px" y="0px"
	 viewBox="0 0 56.8 42" style="enable-background:new 0 0 56.8 42;" xml:space="preserve">
<style type="text/css">
	.st0{fill:#FFFFFF;}
</style>
<path class="st0" d="M51.3,34c0,0.3-0.1,0.4-0.1,0.6c-0.4,1-1.5,1.8-2.6,1.9c-0.7,0-1.4,0-2.2,0c-0.5,0-0.7,0.2-0.7,0.7
	c0,1.4,0,2.8,0,4.1c0,0.5,0.2,0.7,0.7,0.7c0.7,0,1.3,0,2,0c4.4-0.3,8.2-4,8.4-8.4c0.1-1.7,0-3.4,0-5.1c0-0.5-0.2-0.8-0.6-0.8
	c-0.4,0-0.6,0.3-0.6,0.8c0,1.4,0,2.8,0,4.2c0,2.5-0.9,4.7-2.9,6.3c-1.7,1.4-3.6,1.8-5.7,1.7c0-1,0-2,0-3.1c0.5,0,1,0,1.4,0
	c2.4,0,4.1-1.8,4.1-4.1c0-0.6-0.2-0.8-0.8-0.8c-1.4,0-2.8,0-4.2,0c-0.2,0-0.3,0-0.5,0c0-2.9,0-5.8,0-8.6c0.2,0,0.4,0,0.6,0
	c2.8,0,5.5,0,8.3,0c0.2,0,0.4,0,0.5,0c0.3-0.1,0.5-0.3,0.5-0.6c0-0.3-0.2-0.5-0.5-0.5c-0.1,0-0.3,0-0.4,0c-3.1,0-6.2,0-9.3,0
	c-0.7,0-0.8,0.1-0.8,0.8c0,3.1,0,6.3,0,9.4c0,0.7,0.2,0.9,0.9,0.9c1.4,0,2.8,0,4.1,0C50.9,34,51.1,34,51.3,34z"/>
<path class="st0" d="M5.5,8c0.3,0,0.5,0,0.7,0c1.3,0,2.7,0,4,0c0.7,0,0.9,0.2,0.9,0.9c0,3.1,0,6.2,0,9.4c0,0.7-0.2,0.9-0.9,0.9
	c-3.1,0-6.2,0-9.4,0C0.2,19.1,0,19,0,18.4c0-3.3-0.1-6.7,0-10C0.2,4,4,0.3,8.4,0c0.7,0,1.3,0,2,0c0.5,0,0.7,0.2,0.7,0.7
	c0,1.4,0,2.8,0,4.1c0,0.5-0.2,0.7-0.8,0.7c-0.7,0-1.4,0-2.1,0C7.2,5.6,6,6.4,5.7,7.4C5.6,7.6,5.6,7.8,5.5,8z M9.9,1.3
	c-1.2-0.1-2.3,0-3.4,0.4c-3.2,1.2-5.2,4-5.3,7.5c0,2.8,0,5.5,0,8.3c0,0.1,0,0.3,0,0.5c2.9,0,5.8,0,8.6,0c0-2.9,0-5.7,0-8.6
	c-0.2,0-0.4,0-0.5,0c-1.4,0-2.8,0-4.2,0c-0.3,0-0.7-0.1-0.7-0.4C4.3,8.1,4.2,7.3,4.7,6.6c0.9-1.4,2.1-2.3,3.8-2.3c0.5,0,0.9,0,1.4,0
	C9.9,3.3,9.9,2.3,9.9,1.3z"/>
<path class="st0" d="M20.4,8c0.9,0,1.7,0,2.5,0c0.8,0,1.5,0,2.3,0c0.6,0,0.8,0.2,0.8,0.8c0,3.2,0,6.3,0,9.5c0,0.6-0.2,0.8-0.8,0.8
	c-3.2,0-6.3,0-9.5,0c-0.6,0-0.8-0.2-0.8-0.8c0-3.1,0-6.2,0-9.3c0.1-5.1,4-9,9.1-9c0.4,0,0.8,0,1.3,0c0.5,0,0.7,0.2,0.7,0.7
	c0,1.4,0,2.8,0,4.2c0,0.5-0.2,0.7-0.7,0.7c-0.7,0-1.4,0-2.1,0c-1.1,0-2.3,0.8-2.6,1.9C20.4,7.6,20.4,7.8,20.4,8z M24.7,1.3
	c-1.2-0.1-2.3,0-3.4,0.4c-3.3,1.2-5.2,4-5.3,7.5c0,2.7,0,5.5,0,8.2c0,0.1,0,0.3,0,0.5c2.9,0,5.8,0,8.6,0c0-2.9,0-5.7,0-8.6
	c-0.2,0-0.3,0-0.5,0c-1.4,0-2.8,0-4.3,0c-0.4,0-0.7-0.1-0.7-0.5c-0.1-0.7-0.1-1.5,0.3-2.2c0.9-1.4,2.1-2.3,3.8-2.3
	c0.5,0,0.9,0,1.4,0C24.7,3.3,24.7,2.3,24.7,1.3z"/>
<path class="st0" d="M36.5,34c-1.3,0-2.5,0-3.7,0c-0.4,0-0.8,0-1.2,0c-0.4,0-0.6-0.2-0.6-0.6c0-0.1,0-0.2,0-0.4c0-3.1,0-6.1,0-9.2
	c0-0.8,0.1-0.9,0.9-0.9c3.1,0,6.2,0,9.3,0c0.8,0,0.9,0.1,0.9,0.9c0,3,0,6,0,9c0,4.1-2.3,7.3-6.1,8.7C34.5,42.1,33,42,31.5,42
	c-0.4,0-0.6-0.3-0.6-0.7c0-0.9,0-1.8,0-2.7c0-0.4,0-0.9,0-1.3c0-0.6,0.2-0.8,0.8-0.8c0.7,0,1.3,0,2,0c1.1,0,2.2-0.8,2.6-1.8
	C36.4,34.4,36.4,34.2,36.5,34z M32.1,24.1c0,2.9,0,5.7,0,8.6c0.2,0,0.4,0,0.5,0c1.4,0,2.8,0,4.3,0c0.4,0,0.7,0.1,0.7,0.5
	c0.1,0.8,0.1,1.6-0.3,2.3c-0.9,1.4-2.1,2.2-3.8,2.2c-0.5,0-0.9,0-1.4,0c0,1.1,0,2,0,3c1.3,0.2,3.1-0.1,4.3-0.8
	c2.8-1.5,4.3-4,4.3-7.2c0-2.7,0-5.4,0-8.2c0-0.1,0-0.3,0-0.5C37.9,24.1,35,24.1,32.1,24.1z"/>
<path class="st0" d="M51.3,34c-0.2,0-0.4,0-0.6,0c-1.4,0-2.8,0-4.1,0c-0.7,0-0.9-0.2-0.9-0.9c0-3.1,0-6.3,0-9.4
	c0-0.7,0.1-0.8,0.8-0.8c3.1,0,6.2,0,9.3,0c0.1,0,0.3,0,0.4,0c0.3,0,0.5,0.2,0.5,0.5c0,0.3-0.2,0.6-0.5,0.6c-0.2,0-0.4,0-0.5,0
	c-2.8,0-5.5,0-8.3,0c-0.2,0-0.4,0-0.6,0c0,2.9,0,5.7,0,8.6c0.2,0,0.3,0,0.5,0c1.4,0,2.8,0,4.2,0c0.6,0,0.8,0.2,0.8,0.8
	c0,2.4-1.7,4.1-4.1,4.1c-0.5,0-0.9,0-1.4,0c0,1,0,2,0,3.1c2.1,0.2,4.1-0.3,5.7-1.7c2-1.6,2.9-3.7,2.9-6.3c0-1.4,0-2.8,0-4.2
	c0-0.5,0.2-0.8,0.6-0.8c0.4,0,0.6,0.3,0.6,0.8c0,1.7,0,3.4,0,5.1c-0.2,4.4-3.9,8.1-8.4,8.4c-0.7,0-1.3,0-2,0c-0.5,0-0.7-0.2-0.7-0.7
	c0-1.4,0-2.8,0-4.1c0-0.5,0.2-0.7,0.7-0.7c0.7,0,1.4,0,2.2,0c1.1,0,2.2-0.8,2.6-1.9C51.2,34.4,51.3,34.2,51.3,34z"/>
</svg>
